<?xml version="1.0" encoding="UTF-8"?>
<!DOCTYPE svg PUBLIC "-//W3C//DTD SVG 1.1//EN" "http://www.w3.org/Graphics/SVG/1.1/DTD/svg11.dtd">
<!-- Creator: CorelDRAW -->
<svg xmlns="http://www.w3.org/2000/svg" xml:space="preserve" width="53mm" height="52.9551mm" version="1.1" style="shape-rendering:geometricPrecision; text-rendering:geometricPrecision; image-rendering:optimizeQuality; fill-rule:evenodd; clip-rule:evenodd"
viewBox="0 0 5285.82 5281.34"
 xmlns:xlink="http://www.w3.org/1999/xlink"
 xmlns:xodm="http://www.corel.com/coreldraw/odm/2003">
 <defs>
  <style type="text/css">
   <![CDATA[
    .fil1 {fill:white}
    .fil0 {fill:#332D2B}
   ]]>
  </style>
 </defs>
 <g id="Layer_x0020_1">
  <metadata id="CorelCorpID_0Corel-Layer"/>
  <rect class="fil0" x="-0.01" y="-0" width="5285.82" height="5281.34" rx="837.64" ry="823.43"/>
  <g id="_105553365520256">
   <path class="fil1" d="M2423.56 693.87c0,34.65 5.66,75.24 19.25,103.49 13.13,27.32 23.03,39.36 42.97,59.31 26.78,26.78 57.32,46.58 95.97,57.46 15.22,4.28 36.14,1.36 36.14,14.99l0 903.51 -201.16 0 0 -487.55c45.99,-3.82 78.42,-52.68 78.42,-102.28 0,-129.34 -204.57,-132.62 -204.57,6.81 0,38.79 22.26,70.68 52.46,87.33 12.32,6.79 29.37,5.59 29.37,18.37l0 477.32 -170.47 0c-18.93,0 -20.22,3.41 -37.5,3.41l0 -187.52c139.46,-32.49 119.05,-231.85 -23.87,-231.85 -31.29,0 -62.82,17.12 -79.4,33.12 -61.12,58.94 -36.92,164.51 41.13,192.67 10.7,3.86 17.8,0.55 17.8,12.88l0 187.52c0,10.1 -4.14,8.28 -11.91,11.95 -7.92,3.74 -12.18,5.18 -18.81,8.47 -75.97,37.72 -146.09,123.67 -153.39,211.42 -64.87,0 -179.82,3.63 -242.33,0.26 -16.75,-0.9 -15.37,-3.27 -24.56,-12.94 -24.19,-25.39 -235.65,-230.17 -247.19,-247.19 -9.06,-13.36 -4.16,-47.71 -4.16,-67.44 0,-94.33 0,-188.65 0,-282.99 46.87,-10.91 95.61,-25.38 126.72,-64.21 49.14,-61.34 71.65,-141.3 35.84,-217.68 -12.6,-26.87 -28.54,-52.71 -51.96,-70.78 -43.69,-33.71 -81.72,-49.65 -141.28,-49.65 -51.83,0 -103.24,24.12 -136.87,60.88 -6.56,7.19 -15.01,18.54 -20.7,27.03 -69.5,103.54 -32.24,230.81 71.61,291.28 21.22,12.35 45.63,16.91 72.33,23.13 0,49.33 -3.79,319.94 -0.1,354.69 1.92,18.24 41.7,50.03 55.5,63.83 13.38,13.37 228.3,236.1 241.22,236.1l262.53 0 0 228.44 -415.95 0c-2.72,-11.71 -6.97,-25.3 -12.82,-34.91l-23.34 -27.81c-69.93,-65.3 -195.68,-16.67 -195.68,86.58 0,100.61 126.22,152.91 195.27,86.17 16.55,-15.99 34.22,-37.4 36.57,-65.71l415.95 0 0 228.44 -825.09 0c-2.05,-24.72 -14.16,-61.07 -23.96,-78.33 -52.47,-92.44 -172.68,-145.94 -274.98,-97.87 -29.22,13.72 -43.36,22.16 -65.53,43.56l-9.83 10.62c-65.57,70.74 -76.37,195.03 -14.89,272.55 7.74,9.76 15.91,21.33 25.36,29.19 153.86,127.91 350.29,27.42 363.83,-135.41l825.09 0 0 255.71 -184.11 0c-13.35,0 -15.41,-31.86 -37.49,-51.16 -29.88,-26.12 -75.8,-36.79 -113.84,-18.35 -22.87,11.08 -40.66,28.4 -50.32,51.97 -16.11,39.31 -7.57,83.04 21.74,112.21 57.1,56.82 153.8,32.51 173.1,-50.34l190.93 0 0 231.84 -340.95 0c-11.39,0 -44.44,39.33 -53.7,48.59 -37.91,37.91 -74.27,78.75 -114.06,114.58 -15.52,13.98 -27.08,-1.28 -60.72,14.07 -23.61,10.78 -42,24.46 -56.01,46.28 -14.37,22.37 -21.12,52.25 -15.21,82.96 26.35,136.91 231.51,121.22 231.51,-23.5 0,-63.42 -40.79,-78.33 -54.55,-98.86 11.72,-17.49 103.15,-107.44 130.13,-132.4 11.33,-10.48 12.87,-7.74 33.42,-7.49 102.05,1.23 204.82,0.1 306.96,0.1 5.79,24.89 14.32,45.74 24.99,67.07 20.53,41.09 48.66,75.4 86.09,101.43 9.66,6.71 19.85,13.78 28.82,18.91 9.2,5.26 27.16,9.25 27.16,20.57l0 306.85c0,10.08 -21.1,26.22 -28.12,33.24l-160.25 160.25c-10.84,10.84 -54.67,62.22 -67.33,62.22l-262.54 0c-1.05,-47.23 -30.11,-95.79 -62.16,-125.35 -163.87,-151.09 -412.31,35.97 -322.02,229.95 35.44,76.15 92.79,107.87 174.86,118.63 22.31,2.92 61.38,-5.37 79.35,-12.27 9.83,-3.78 21.8,-9.77 32.22,-15.51 51.18,-28.12 92.15,-83.86 97.75,-151.13 34.86,0 276.15,3.06 288.13,-1.68 15.65,-6.2 182.89,-181.24 217.33,-215.68 42.97,-42.97 57.57,-42.42 57.16,-89.45 -0.85,-97.61 -0.05,-195.61 -0.05,-293.26 65.73,15.32 148.76,10.23 218.2,10.23l0 194.34c-37.05,3.08 -78.42,48.63 -78.42,88.64l0 20.47c0,50.06 52.13,92.05 102.29,92.05 92.5,0 127.94,-101.99 78.52,-167.16 -10.65,-14.05 -34.41,-33.47 -58.06,-34l0 -194.34 204.57 0 0 896.68c-40.32,0 -79.83,18.87 -108.09,41.93 -167.39,136.6 -65.67,368.89 104.83,387.67l44.53 0c23.2,-2.49 47.24,-8.91 71.74,-19.97 46.74,-21.11 84.29,-59.69 105.17,-106.22 24.36,-54.32 24.74,-116.46 3.5,-170.49 -25.9,-65.88 -100.3,-132.91 -177.35,-132.91l0 -896.68 211.38 0 0 463.69c-44.24,0.99 -92.05,55.29 -92.05,98.87l0 23.87c0,53.08 52.62,105.7 105.7,105.7 38.19,0 69.03,-7.58 94.74,-34.83 66.82,-70.81 15.73,-191.84 -64.05,-193.61l0 -463.69 132.96 0c31.01,0 47.99,-3.41 78.42,-3.41l0 344.36c0,10.08 21.1,26.22 28.12,33.24l158.54 158.54c10.8,10.8 53.08,60.52 65.63,60.52l303.44 0c0,82.53 67.86,149.76 135.3,178.37 53.24,22.59 124.19,16.05 169.31,-6.74l48.06 -30.36c95.36,-74.03 100.03,-229.9 16.43,-312.61 -44.28,-43.8 -94.9,-67.33 -161.11,-67.33 -106.37,0 -190.14,81.02 -207.2,178.07 -1.84,10.45 0.43,16.27 -11.01,16.27l-276.16 0c-12.32,0 -186.72,-181.63 -198.61,-193.48 -30.41,-30.33 -23.02,-19.09 -23.01,-75.86l0 -296.62c86.97,-20.27 190.93,-133.95 190.93,-225.03l265.94 0c15.15,0 155.06,154.47 173.88,167.06 -16.04,23.96 -30.69,44.2 -30.69,78.42 0,54.66 44.57,115.92 102.29,115.92l23.87 0c96.92,0 142.08,-126.81 75.99,-195.32 -47.86,-49.62 -86.19,-38.22 -137.35,-26.3 -30.97,-20.73 -174.39,-184.11 -190.94,-184.11l-276.16 0 0 -231.85 426.18 0c4.5,19.3 18.14,42.32 31.99,53.25 68.47,54.01 169.17,14.41 169.17,-70.29 0,-34.55 -8.99,-58.94 -31.44,-81.07 -38.9,-38.35 -96.26,-35.56 -137.73,-2.85 -13.59,10.72 -27.67,34.68 -31.99,53.24l-426.18 0 0 -231.84 804.63 0c1.49,66.99 49.57,127.8 96.91,158.79 113.26,74.12 265.97,20.15 311.8,-87.61 93.6,-220.05 -160.92,-411.28 -341.37,-252.73 -9.96,8.75 -15.38,17.11 -23.84,27.31 -9.38,11.33 -13.17,18.41 -19.67,31.48 -9.89,19.93 -23.84,48.8 -23.84,78.45l-804.63 0 0 -497.78c0,-11.75 -2.52,-13.19 -3.41,-23.87l245.51 0.03c43.49,0.35 33.61,-1.25 57.08,-24.74 28.09,-28.12 53.72,-53.73 81.83,-81.83 19.92,-19.92 63.19,-67.93 82.68,-80.97 17.64,4.11 36.55,13.63 57.95,13.63 104.45,0 150.93,-130.96 82.79,-198.71 -79.42,-78.95 -213.42,-15.86 -199.5,93.54 3.79,29.79 11.8,41.63 24.66,60.85 -19.31,12.93 -165.31,173.88 -180.7,173.88l-248.89 0c-16.23,0 -11.08,-43.55 -53.13,-103.71 -36.98,-52.92 -90.02,-95.18 -158.26,-111.08l-0.01 -293.21c-0.08,-55.39 -1.77,-40.85 28.13,-70.75 11.96,-11.96 188.07,-195.19 200.3,-195.19l279.58 0c1.59,71.46 63.94,152.14 129.96,176.89 96.86,36.28 198.26,9.03 257.3,-69.19 46.91,-62.16 56.16,-155.48 20.81,-225.97 -14.38,-28.7 -24.83,-38.65 -45.81,-59.88 -19.16,-19.39 -34.98,-28.61 -61.05,-41.24 -73.4,-35.56 -175.91,-17.48 -232.22,39.52 -37.15,37.61 -64.24,78.27 -69,135.56 -35.66,0 -276.48,-3.95 -299.8,0.24 -13.19,2.36 -19.65,14.02 -28.36,22.77 -9.34,9.36 -16.22,16.22 -25.57,25.57l-150.02 150.02c-9.26,9.26 -48.59,42.31 -48.59,53.7l0 340.95 -204.56 0 0 -190.93c138.34,-32.22 118.23,-231.84 -23.87,-231.84 -132.81,0 -162.8,198.68 -20.46,231.84l0 190.93 -207.98 0 0 -913.73c45.73,0 101.5,-28.77 132.01,-62.33l20.81 -26.93c50.74,-74.46 50.35,-178.34 -2.77,-251.71 -5.71,-7.89 -17.23,-22.99 -25.26,-29.29 -43.31,-34 -87.44,-59.32 -148.65,-59.32 -110.95,0 -214.79,94.23 -214.79,204.56z"/>
   <path class="fil1" d="M3524.81 2357.68c0,68.02 52.26,119.33 102.28,119.33l27.28 0c47.93,0 102.29,-54.36 102.29,-102.29 0,-37.7 -1.57,-66.77 -34.82,-98.15 -71.87,-67.81 -197.02,-18.89 -197.02,81.1z"/>
   <path class="fil0" d="M2836.1 2119.01c0,47.6 1.71,81.81 41.69,118.56 41.22,37.88 96.23,48.94 151.32,26.72 12.47,-5.03 35.88,-20.67 42.24,-29.35l-38.26 -40.17c-21.57,14.09 -25.84,23.12 -60.62,23.12 -75.86,0 -105.08,-91.26 -57.23,-139.05 32.45,-32.41 78.31,-32.79 115.19,-0.74l41.73 -40.09c-40.7,-27.75 -80.06,-56.71 -147.95,-32.03 -21.92,7.96 -43.89,25.3 -57.06,41.82 -10.01,12.56 -12.17,15.08 -19.75,31.4 -4.92,10.6 -11.31,26.13 -11.31,39.82z"/>
   <path class="fil0" d="M2297.41 3220.27c147.48,0 109.4,-202.81 -12.85,-173.19 -21.45,5.21 -26.58,9.61 -40.92,23.96 -26.18,26.18 -33.84,59.49 -20.93,94.38 9.07,24.5 40.86,54.85 74.7,54.85z"/>
   <path class="fil0" d="M3033.85 2129.25c0,29.38 -1.37,38.23 24.59,64.05 31.33,31.16 77.9,24.77 104.29,0.06 45.11,-42.23 26.57,-127.35 -48.74,-133.76 -39.14,-3.34 -80.14,29.06 -80.14,69.65z"/>
   <polygon class="fil0" points="2757.68,2272.44 2812.23,2272.44 2812.23,1999.68 2757.68,1999.68 "/>
   <path class="fil0" d="M2757.68 2354.27c57.05,0 63.86,5.98 68.19,-10.23l27.28 0c3.74,13.99 2.54,10.23 20.46,10.23 -2.74,-5.72 -4.19,-11.09 -6.86,-16.99l-30.64 -54.6c-4.83,20.73 -21.84,44.86 -27.28,68.19 -0.48,-0.7 -0.92,-2.81 -1.13,-2.27 -0.21,0.53 -0.91,-1.8 -1.22,-2.2 -5.88,-7.83 3.51,2.41 -2.87,-3.94 -7.26,-7.21 11.37,-5.22 -28.88,-5.22l0 -57.96 -17.04 0 0 75.01z"/>
   <path class="fil0" d="M2931.56 2333.82c-2.43,-10.45 -2.85,-8.74 -7.47,-16.63 -6.92,-11.84 -3.28,-6.54 -3.78,-14.9 -0.8,-13.05 -6.6,-21.08 -23.45,-23.22 -28.23,-3.56 -19.86,13.51 -19.86,75.2l40.92 0 12.4 -18.29c0.27,-0.45 0.76,-1.49 1.24,-2.16z"/>
   <path class="fil0" d="M3095.22 2354.27l17.05 0 0 -23.87c8.06,5.9 12.22,14.75 17.04,23.87 6.19,-4.54 5.02,-4.67 9.78,-10.68l10.67 -13.18 0 23.87 17.04 0 0 -71.6c-14.68,9.82 -23.89,34.35 -37.5,44.32l-34.1 -47.73 0 75.01z"/>
   <path class="fil0" d="M3027.03 2327c0,38.65 61.38,36.39 61.38,-3.41 0,-46.01 3.63,-43.86 -17.05,-44.32 0,29.35 2.31,33.39 -3.41,57.96 -18.48,1.54 -23.99,6.43 -24.17,-20.14 -0.19,-26.46 8.69,-37.26 -16.75,-37.83l0 47.73z"/>
   <path class="fil0" d="M2931.56 2333.82c4.8,20.57 12.8,20.46 37.51,20.46 12.1,-13.96 9.33,-6.74 10.22,-30.69 -8.34,-5.59 -5.9,-5.71 -16.3,-10.97 -13.25,-6.71 -10.06,3.29 -14.39,-12.9 19.82,-9.17 0.69,2.65 21.06,2.61 13.01,-0.02 8.79,-8.84 2.38,-15.32 -18.53,-18.73 -32.62,-2.16 -40.49,12.71 3.78,16.22 12.16,25.73 30.69,27.28l0 10.23c-15.42,-0.35 -13.55,-3.41 -30.69,-3.41z"/>
   <path class="fil0" d="M3173.64 2289.49l0 64.79 17.04 0 0 -75.01c-10.92,0.24 -17.04,-1.12 -17.04,10.22z"/>
   <polygon class="fil0" points="2982.71,2330.41 3020.21,2330.41 3020.21,2316.76 2982.71,2316.76 "/>
  </g>
 </g>
</svg>
